# xmcd CD database file
# Copyright (C) 1993-1998 Ti Kan
#
# Track frame offsets:
#	150
#	15885
#	33075
#	51562
#	67887
#	85502
#	117312
#	134462
#	160922
#
# Disc length: 2379 seconds
#
# Revision: 1
# Processed by: cddbd v1.4b41PL1 Copyright (c) Steve Scherf et al.
# Submitted via: CDValet v3.01 - Copyright (c) 1997 Greg Leichner
#
DISCID=67094909
DTITLE=Black Cat Moan - Black Cat Moan
DYEAR=1900
DGENRE=
TTITLE0=I'd Rather Be Blind
TTITLE1=I'm Tore Down
TTITLE2=The Very Thought Of You
TTITLE3=I Want To Be Loved
TTITLE4=Ain't That Just Like A Woman
TTITLE5=Personal Manager
TTITLE6=Born Under A Bad Sign
TTITLE7=Calypso Blues
TTITLE8=You Upset Me Baby
EXTD=
EXTT0=
EXTT1=
EXTT2=
EXTT3=
EXTT4=
EXTT5=
EXTT6=
EXTT7=
EXTT8=
PLAYORDER=
